<svg id="e6TZhcjwson1" xmlns="http://www.w3.org/2000/svg" xmlns:xlink="http://www.w3.org/1999/xlink" viewBox="0 0 1920 1080" shape-rendering="geometricPrecision" text-rendering="geometricPrecision"><g><rect width="1920" height="1080" rx="0" ry="0" transform="translate(-.5 0.5)"/></g><g><path d="M921.17,679.81C934.77,667,952.93,664.15,969,665c21.195836,1.232822,38.393241,17.609691,40.66,38.72v0c2.347814,21.333492,11.106093,41.454523,25.12,57.71l8.49,9.84c20.143319,21.315696,31.348806,49.542356,31.31,78.87c0,62.62-50.79,114.19-113.4,115.07-46.208162.664788-88.33033-26.38098-106.956025-68.674238s-10.140288-91.626295,21.546025-125.265762l2.61-3.15c18.096733-21.786786,28.002125-49.217645,28-77.54v-4.38c0-21.2,16.34-39,37.5-40.38c5.23819-.368544,10.502185-.005046,15.64,1.08c29.43,6.43,37-1.16,36.43-8.09-.69-8.67-9.42-14.66-33.42-10.34-24.71,4.46-37.94,8.29-39.61-4.13-1.5-11.08,18.94-17.17,44.09-11c5.94,1.45,10.58,2.79,14.26,3.17c2.431029.248419,4.801203-.862619,6.165397-2.890079s1.500514-4.641565.354603-6.799921c-1.909662-3.590452-4.683042-6.649074-8.07-8.9-11.93-8-3.15-21.36-18.22-21.62-16.39-.28-18.9-.95-21.92,11.73-.558541,2.174839-.246404,4.481787.87,6.43c1.48,2.46,5.85,6,11.06,2.34c9.47-6.72,8.1-44.1,2.58-79.23s10.49-63.57,7.91-93.57-2.5-87.84-2.5-87.84s1.17-90.29,12.1-152.27c11.11-63-5.62-117.47-1.9-165" fill="none" stroke="#fff" stroke-width="4" stroke-linecap="round" stroke-miterlimit="10"/></g></svg>